<svg xmlns="http://www.w3.org/2000/svg" width="1920" height="900" viewBox="0 0 1920 900" fill="none"><g clip-path="url(#clip0_10_2)"><mask id="mask0_10_2" style="mask-type:luminance" maskUnits="userSpaceOnUse" x="0" y="0" width="1920" height="900"><path d="M1920 0H0V900H1920V0Z" fill="white"></path></mask><g mask="url(#mask0_10_2)"><path opacity="0.4" d="M1210 1200C1514.86 1200 1762 952.861 1762 648C1762 343.139 1514.86 96 1210 96C905.139 96 658 343.139 658 648C658 952.861 905.139 1200 1210 1200Z" stroke="#4175FC" stroke-opacity="0.1" stroke-width="2"></path><path opacity="0.24" d="M1210 1357C1601.57 1357 1919 1039.57 1919 648C1919 256.43 1601.57 -61 1210 -61C818.43 -61 501 256.43 501 648C501 1039.57 818.43 1357 1210 1357Z" stroke="#4175FC" stroke-opacity="0.1" stroke-width="2"></path><path d="M1210 1057C1435.88 1057 1619 873.884 1619 648C1619 422.116 1435.88 239 1210 239C984.116 239 801 422.116 801 648C801 873.884 984.116 1057 1210 1057Z" fill="#4175FC" fill-opacity="0.7"></path><path opacity="0.4" d="M-362 1219C-47.75 1219 207 964.25 207 650C207 335.75 -47.75 81 -362 81C-676.25 81 -931 335.75 -931 650C-931 964.25 -676.25 1219 -362 1219Z" stroke="#4175FC" stroke-opacity="0.5" stroke-width="2"></path><path opacity="0.24" d="M-362 1371C36.1973 1371 359 1048.2 359 650C359 251.803 36.1973 -71 -362 -71C-760.197 -71 -1083 251.803 -1083 650C-1083 1048.2 -760.197 1371 -362 1371Z" stroke="#4175FC" stroke-opacity="0.5" stroke-width="2"></path><path d="M-362 1090C-118.995 1090 78 893.005 78 650C78 406.995 -118.995 210 -362 210C-605.005 210 -802 406.995 -802 650C-802 893.005 -605.005 1090 -362 1090Z" fill="#4175FC" fill-opacity="0.5"></path></g></g><defs><clipPath id="clip0_10_2"><rect width="1920" height="900" fill="white"></rect></clipPath></defs></svg>